<svg width="24" height="24" xmlns="http://www.w3.org/2000/svg" fill-rule="evenodd" clip-rule="evenodd"><path d="M23.978 1v19.98c0 1.116-.905 2.02-2.021 2.02h-19.959c-1.115 0-2.02-.905-2.02-2.02v-17.98h2v17.199c0 .771 1 .771 1 0v-19.199h21zm-2 19v-17h-17v17h17zm-2-3v1h-13v-1h13zm-7-6v4h-6v-4h6zm7 3v1h-5v-1h5zm0-3v1h-5v-1h5zm-3.729-2.354c.722 0 1.236-.4 1.236-1.076 0-.742-.566-.927-1.07-1.087-.518-.166-.599-.276-.599-.436 0-.14.119-.266.357-.266.304 0 .461.156.575.406l.642-.396c-.243-.516-.671-.791-1.217-.791-.576 0-1.118.391-1.118 1.067 0 .671.485.922.98 1.067.499.145.689.23.689.446 0 .135-.09.285-.452.285-.375 0-.58-.195-.699-.486l-.656.401c.186.516.633.866 1.332.866zm2.686 0c.723 0 1.236-.4 1.236-1.076 0-.742-.566-.927-1.07-1.087-.518-.166-.599-.276-.599-.436 0-.14.119-.266.357-.266.304 0 .461.156.575.406l.642-.396c-.242-.516-.67-.791-1.217-.791-.575 0-1.117.391-1.117 1.067 0 .671.485.922.979 1.067.499.145.689.23.689.446 0 .135-.09.285-.451.285-.376 0-.58-.195-.699-.486l-.656.401c.185.516.632.866 1.331.866zm-11.34-.07h-.76v-3.506h1.26c.656 0 1.164.536 1.164 1.202 0 .666-.508 1.202-1.164 1.202h-.5v1.102zm7.037-2.735h-1.307v.582h1.188v.761h-1.188v.621h1.331v.771h-2.092v-3.506h2.068v.771zm-4.231 2.735h-.761v-3.506h1.331c.632 0 1.141.536 1.141 1.202 0 .431-.247.822-.613 1.017l.708 1.287h-.818l-.627-1.152h-.361v1.152zm-2.306-2.755h-.5v.902h.5c.233 0 .404-.195.404-.451 0-.255-.171-.451-.404-.451zm2.876 0h-.57v.902h.57c.209 0 .38-.195.38-.451 0-.255-.171-.451-.38-.451z"/></svg>