<?xml version="1.0" encoding="utf-8"?>
<!-- Generator: Adobe Illustrator 16.0.0, SVG Export Plug-In . SVG Version: 6.00 Build 0)  -->
<!DOCTYPE svg PUBLIC "-//W3C//DTD SVG 1.1//EN" "http://www.w3.org/Graphics/SVG/1.1/DTD/svg11.dtd">
<svg version="1.1" id="Layer_1" xmlns="http://www.w3.org/2000/svg" xmlns:xlink="http://www.w3.org/1999/xlink" x="0px" y="0px"
	 width="100px" height="100px" viewBox="0 0 100 100" enable-background="new 0 0 100 100" xml:space="preserve">
<g id="XMLID_2_">
	<g>
		<path fill="#73CBCF" d="M50.63,42.2l-4.92,6.1h4.54H51h4.55L50.63,42.2z M84.31,67.55h-12l1.131-1.689L60.42,54.98l-9.79,0.22
			l-9.79-0.22L27.81,65.86l1.14,1.689H16.94l33.69-33.68L84.31,67.55z"/>
	</g>
	<g>
		<polyline fill="none" stroke="#000000" stroke-miterlimit="10" points="51,33.5 50.63,33.87 16.94,67.55 28.95,67.55 27.81,65.86 
			40.84,54.98 50.63,55.2 51,55.21 		"/>
		<polyline fill="none" stroke="#000000" stroke-miterlimit="10" points="50.25,48.3 45.71,48.3 50.63,42.2 51,41.73 		"/>
		<polyline fill="none" stroke="#000000" stroke-miterlimit="10" points="50.25,33.5 50.63,33.87 84.31,67.55 72.31,67.55 
			73.44,65.86 60.42,54.98 50.63,55.2 50.25,55.21 		"/>
		<polyline fill="none" stroke="#000000" stroke-miterlimit="10" points="50.25,48.3 51,48.3 55.55,48.3 50.63,42.2 50.25,41.73 		
			"/>
	</g>
</g>
<g id="XMLID_1_">
	<g>
		<path fill="#73CBCF" d="M40.32,40.83L19.25,60.08c10.54-12.91,0-10.08,0-10.08L40.32,40.83z"/>
	</g>
	<g>
		<path fill="none" stroke="#000000" stroke-miterlimit="10" d="M19.25,60.08l21.07-19.25L19.25,50
			C19.25,50,29.79,47.17,19.25,60.08z"/>
	</g>
</g>
</svg>
