<?xml version="1.0" encoding="utf-8"?>
<!-- Generator: Adobe Illustrator 16.0.0, SVG Export Plug-In . SVG Version: 6.00 Build 0)  -->
<!DOCTYPE svg PUBLIC "-//W3C//DTD SVG 1.1//EN" "http://www.w3.org/Graphics/SVG/1.1/DTD/svg11.dtd">
<svg version="1.1" id="Layer_1" xmlns="http://www.w3.org/2000/svg" xmlns:xlink="http://www.w3.org/1999/xlink" x="0px" y="0px"
	 width="25px" height="25px" viewBox="0 0 25 25" enable-background="new 0 0 25 25" xml:space="preserve">
<g>
	<path fill-rule="evenodd" clip-rule="evenodd" fill="#6B6C6C" d="M2.26,12.577c0-3.136-0.011-6.271,0.004-9.408
		C2.272,1.442,2.831,0.892,4.55,0.886c2.744-0.01,5.489,0.033,8.232-0.022c0.904-0.018,1.177,0.255,1.154,1.154
		c-0.059,2.204,0.011,4.41-0.033,6.615c-0.018,0.815,0.219,1.112,1.07,1.092c2.253-0.053,4.509,0.008,6.762-0.032
		c0.749-0.013,1.027,0.195,1.021,0.983c-0.034,3.92-0.01,7.84-0.02,11.76c-0.003,1.314-0.684,1.977-2.008,1.977
		c-5.488-0.002-10.977,0.01-16.465-0.008c-1.385-0.006-1.987-0.656-1.997-2.125C2.246,19.045,2.26,15.811,2.26,12.577z"/>
	<path fill-rule="evenodd" clip-rule="evenodd" fill="#6C6C6C" d="M19.031,8.235c-3.537,0-3.537,0-3.537-3.55
		c0-0.78-0.002-1.56,0.001-2.34c0.007-1.6,0.165-1.793,1.457-0.965c2.262,1.45,4.213,3.282,5.512,5.695
		c0.45,0.836,0.217,1.246-0.801,1.173C20.79,8.186,19.909,8.235,19.031,8.235z"/>
	<path fill-rule="evenodd" clip-rule="evenodd" fill="#FEFEFE" d="M12.502,15.588c-2.154,0-4.309-0.004-6.462,0.004
		c-0.525,0.002-0.958,0.006-0.959-0.736c0-0.736,0.424-0.742,0.954-0.742c4.308,0.008,8.616,0.008,12.925,0
		c0.525,0,0.959-0.004,0.959,0.736c0,0.738-0.424,0.746-0.954,0.742C16.812,15.582,14.656,15.588,12.502,15.588z"/>
	<path fill-rule="evenodd" clip-rule="evenodd" fill="#FEFEFE" d="M12.351,18.529c-2.105,0-4.211-0.006-6.316,0.004
		c-0.53,0.004-0.955-0.004-0.954-0.742c0-0.74,0.433-0.736,0.958-0.736c4.309,0.008,8.617,0.008,12.925,0
		c0.53,0,0.954,0.004,0.954,0.742c0,0.742-0.434,0.738-0.959,0.736C16.757,18.525,14.554,18.529,12.351,18.529z"/>
	<path fill-rule="evenodd" clip-rule="evenodd" fill="#FEFEFE" d="M12.351,21.471c-2.105,0-4.21-0.006-6.315,0.004
		c-0.53,0.002-0.955-0.004-0.954-0.742c0-0.74,0.434-0.736,0.959-0.736c4.308,0.006,8.616,0.008,12.925,0
		c0.53,0,0.954,0.004,0.954,0.742c0,0.742-0.434,0.738-0.959,0.736C16.757,21.467,14.554,21.471,12.351,21.471z"/>
</g>
</svg>
